<svg width="44" height="44" viewBox="0 0 44 44" fill="none" xmlns="http://www.w3.org/2000/svg">
<path d="M9.84893 44H0.726786V14.6235H9.84893V44ZM5.28295 10.6162C2.36598 10.6162 0 8.20009 0 5.28306C2.08784e-08 3.88191 0.556595 2.53814 1.54734 1.54737C2.53808 0.556607 3.88182 0 5.28295 0C6.68407 0 8.02781 0.556607 9.01855 1.54737C10.0093 2.53814 10.5659 3.88191 10.5659 5.28306C10.5659 8.20009 8.19893 10.6162 5.28295 10.6162ZM43.9902 44H34.8877V29.6997C34.8877 26.2916 34.8189 21.9209 30.1449 21.9209C25.4021 21.9209 24.6754 25.6237 24.6754 29.4541V44H15.563V14.6235H24.312V18.6307H24.4396C25.6575 16.3226 28.6324 13.8868 33.0707 13.8868C42.3029 13.8868 44 19.9664 44 27.863V44H43.9902Z" fill="#201E1F"/>
</svg>
